<?xml version="1.0" standalone="no"?>
<!DOCTYPE svg PUBLIC "-//W3C//DTD SVG 20010904//EN"
 "http://www.w3.org/TR/2001/REC-SVG-20010904/DTD/svg10.dtd">
<svg version="1.0" xmlns="http://www.w3.org/2000/svg"
 width="702.000000pt" height="702.000000pt" viewBox="0 0 702.000000 702.000000"
 preserveAspectRatio="xMidYMid meet">
<metadata>
Created by potrace 1.11, written by Peter Selinger 2001-2013
</metadata>
<g transform="translate(0.000000,702.000000) scale(0.100000,-0.100000)"
fill="#000000" stroke="none">
<path d="M2795 6942 c-143 -22 -484 -129 -670 -210 -427 -185 -751 -406 -1091
-746 -286 -287 -487 -563 -660 -908 -245 -488 -366 -1008 -366 -1568 0 -718
202 -1379 603 -1970 493 -728 1280 -1264 2127 -1450 l82 -18 0 2416 0 2417
730 -730 730 -730 0 -1677 c0 -923 3 -1678 8 -1678 4 0 63 15 132 34 627 173
1154 484 1603 946 490 503 800 1098 931 1785 79 420 79 891 0 1310 -235 1235
-1120 2256 -2309 2662 -95 33 -339 103 -357 103 -4 0 -8 -458 -8 -1017 l0
-1018 -730 730 -730 730 -2 295 c-3 289 -3 295 -23 292z"/>
</g>
</svg>
