<svg width="365" height="459" viewBox="0 0 365 459" fill="none" xmlns="http://www.w3.org/2000/svg"><path d="M364.542 1.294V0h-1.294v1.294h1.294zm0 15.79V15.79h-1.294v1.294h1.294zm0 15.789V31.58h-1.294v1.294h1.294zm0 15.79V47.37h-1.294v1.294h1.294zm0 15.704v-1.295h-1.294v1.294h1.294zm0 15.789v-1.294h-1.294v1.294h1.294zm0 15.79v-1.294h-1.294v1.294h1.294zm0 15.789v-1.294h-1.294v1.294h1.294zm0 15.79v-1.294h-1.294v1.294h1.294zm0 15.703v-1.294h-1.294v1.294h1.294zm0 15.79v-1.294h-1.294v1.294h1.294zm0 15.79v-1.295h-1.294v1.295h1.294zm0 15.789v-1.294h-1.294v1.294h1.294zm0 15.79v-1.294h-1.294v1.294h1.294zm0 15.703v-1.294h-1.294v1.294h1.294zm0 15.79v-1.295h-1.294v1.295h1.294zm0 15.789v-1.294h-1.294v1.294h1.294zm0 15.79v-1.294h-1.294v1.294h1.294zm0 15.79v-1.295h-1.294v1.295h1.294zm0 15.703v-1.294h-1.294v1.294h1.294zm0 15.789v-1.294h-1.294v1.294h1.294zm0 15.79v-1.294h-1.294v1.294h1.294zm0 15.79v-1.294h-1.294v1.294h1.294zm0 15.789v-1.294h-1.294v1.294h1.294zm0 15.704v-1.294h-1.294v1.294h1.294zm0 15.79v-1.295h-1.294v1.295h1.294zm0 15.789v-1.294h-1.294v1.294h1.294zm0 15.79v-1.295h-1.294v1.295h1.294zm0 15.789v-1.294h-1.294v1.294h1.294zm0 15.79v-1.294h-1.294v1.294h1.294zM348.752 1.294V0h-1.294v1.294h1.294zm0 15.79V15.79h-1.294v1.294h1.294zm0 15.789V31.58h-1.294v1.294h1.294zm0 15.79V47.37h-1.294v1.294h1.294zm0 15.704v-1.295h-1.294v1.294h1.294zm0 15.789v-1.294h-1.294v1.294h1.294zm0 15.79v-1.294h-1.294v1.294h1.294zm0 15.789v-1.294h-1.294v1.294h1.294zm0 15.79v-1.294h-1.294v1.294h1.294zm0 15.703v-1.294h-1.294v1.294h1.294zm0 15.79v-1.294h-1.294v1.294h1.294zm0 15.79v-1.295h-1.294v1.295h1.294zm0 15.789v-1.294h-1.294v1.294h1.294zm0 15.79v-1.294h-1.294v1.294h1.294zm0 15.703v-1.294h-1.294v1.294h1.294zm0 15.79v-1.295h-1.294v1.295h1.294zm0 15.789v-1.294h-1.294v1.294h1.294zm0 15.79v-1.294h-1.294v1.294h1.294zm0 15.79v-1.295h-1.294v1.295h1.294zm0 15.703v-1.294h-1.294v1.294h1.294zm0 15.789v-1.294h-1.294v1.294h1.294zm0 15.79v-1.294h-1.294v1.294h1.294zm0 15.79v-1.294h-1.294v1.294h1.294zm0 15.789v-1.294h-1.294v1.294h1.294zm0 15.704v-1.294h-1.294v1.294h1.294zm0 15.79v-1.295h-1.294v1.295h1.294zm0 15.789v-1.294h-1.294v1.294h1.294zm0 15.79v-1.295h-1.294v1.295h1.294zm0 15.789v-1.294h-1.294v1.294h1.294zm0 15.79v-1.294h-1.294v1.294h1.294zM332.963 1.294V0h-1.295v1.294h1.295zm0 15.79V15.79h-1.295v1.294h1.295zm0 15.789V31.58h-1.295v1.294h1.295zm0 15.79V47.37h-1.295v1.294h1.295zm0 15.703v-1.294h-1.295v1.294h1.295zm0 15.79v-1.294h-1.295v1.294h1.295zm0 15.79v-1.294h-1.295v1.294h1.295zm0 15.789v-1.294h-1.295v1.294h1.295zm0 15.79v-1.294h-1.295v1.294h1.295zm0 15.703v-1.294h-1.295v1.294h1.295zm0 15.79v-1.294h-1.295v1.294h1.295zm0 15.79v-1.295h-1.295v1.295h1.295zm0 15.789v-1.294h-1.295v1.294h1.295zm0 15.79v-1.294h-1.295v1.294h1.295zm0 15.703v-1.294h-1.295v1.294h1.295zm0 15.79v-1.295h-1.295v1.295h1.295zm0 15.789v-1.294h-1.295v1.294h1.295zm0 15.79v-1.294h-1.295v1.294h1.295zm0 15.79v-1.295h-1.295v1.295h1.295zm0 15.703v-1.294h-1.295v1.294h1.295zm0 15.789v-1.294h-1.295v1.294h1.295zm0 15.79v-1.294h-1.295v1.294h1.295zm0 15.79v-1.294h-1.295v1.294h1.295zm0 15.789v-1.294h-1.295v1.294h1.295zm0 15.704v-1.294h-1.295v1.294h1.295zm0 15.79v-1.295h-1.295v1.295h1.295zm0 15.789v-1.294h-1.295v1.294h1.295zm0 15.79v-1.295h-1.295v1.295h1.295zm0 15.789v-1.294h-1.295v1.294h1.295zm0 15.79v-1.294h-1.295v1.294h1.295zM317.173 1.294V0h-1.294v1.294h1.294zm0 15.79V15.79h-1.294v1.294h1.294zm0 15.789V31.58h-1.294v1.294h1.294zm0 15.79V47.37h-1.294v1.294h1.294zm0 15.703v-1.294h-1.294v1.294h1.294zm0 15.79v-1.294h-1.294v1.294h1.294zm0 15.79v-1.294h-1.294v1.294h1.294zm0 15.789v-1.294h-1.294v1.294h1.294zm0 15.79v-1.294h-1.294v1.294h1.294zm0 15.703v-1.294h-1.294v1.294h1.294zm0 15.79v-1.294h-1.294v1.294h1.294zm0 15.79v-1.295h-1.294v1.295h1.294zm0 15.789v-1.294h-1.294v1.294h1.294zm0 15.79v-1.294h-1.294v1.294h1.294zm0 15.703v-1.294h-1.294v1.294h1.294zm0 15.79v-1.295h-1.294v1.295h1.294zm0 15.789v-1.294h-1.294v1.294h1.294zm0 15.79v-1.294h-1.294v1.294h1.294zm0 15.79v-1.295h-1.294v1.295h1.294zm0 15.703v-1.294h-1.294v1.294h1.294zm0 15.789v-1.294h-1.294v1.294h1.294zm0 15.79v-1.294h-1.294v1.294h1.294zm0 15.79v-1.294h-1.294v1.294h1.294zm0 15.789v-1.294h-1.294v1.294h1.294zm0 15.704v-1.294h-1.294v1.294h1.294zm0 15.79v-1.295h-1.294v1.295h1.294zm0 15.789v-1.294h-1.294v1.294h1.294zm0 15.79v-1.295h-1.294v1.295h1.294zm0 15.789v-1.294h-1.294v1.294h1.294zm0 15.79v-1.294h-1.294v1.294h1.294zM301.383 1.294V0h-1.294v1.294h1.294zm0 15.79V15.79h-1.294v1.294h1.294zm0 15.789V31.58h-1.294v1.294h1.294zm0 15.79V47.37h-1.294v1.294h1.294zm0 15.703v-1.294h-1.294v1.294h1.294zm.001 15.79v-1.294h-1.295v1.294h1.295zm0 15.79v-1.294h-1.295v1.294h1.295zm0 15.789v-1.294h-1.295v1.294h1.295zm0 15.79v-1.294h-1.295v1.294h1.295zm0 15.703v-1.294h-1.295v1.294h1.295zm0 15.79v-1.294h-1.295v1.294h1.295zm0 15.79v-1.295h-1.295v1.295h1.295zm0 15.789v-1.294h-1.295v1.294h1.295zm-.001 15.79v-1.294h-1.294v1.294h1.294zm0 15.703v-1.294h-1.294v1.294h1.294zm0 15.79v-1.295h-1.294v1.295h1.294zm0 15.789v-1.294h-1.294v1.294h1.294zm0 15.79v-1.294h-1.294v1.294h1.294zm0 15.79v-1.295h-1.294v1.295h1.294zm0 15.703v-1.294h-1.294v1.294h1.294zm0 15.789v-1.294h-1.294v1.294h1.294zm0 15.79v-1.294h-1.294v1.294h1.294zm0 15.79v-1.294h-1.294v1.294h1.294zm0 15.789v-1.294h-1.294v1.294h1.294zm0 15.704v-1.294h-1.294v1.294h1.294zm0 15.79v-1.295h-1.294v1.295h1.294zm0 15.789v-1.294h-1.294v1.294h1.294zm0 15.79v-1.295h-1.294v1.295h1.294zm0 15.789v-1.294h-1.294v1.294h1.294zm0 15.79v-1.294h-1.294v1.294h1.294zM285.594 1.294V0H284.3v1.294h1.294zm0 15.79V15.79H284.3v1.294h1.294zm0 15.789V31.58H284.3v1.294h1.294zm0 15.79V47.37H284.3v1.294h1.294zm0 15.703v-1.294H284.3v1.294h1.294zm0 15.79v-1.294H284.3v1.294h1.294zm0 15.79v-1.294H284.3v1.294h1.294zm0 15.789v-1.294H284.3v1.294h1.294zm0 15.79v-1.294H284.3v1.294h1.294zm0 15.703v-1.294H284.3v1.294h1.294zm0 15.79v-1.294H284.3v1.294h1.294zm0 15.79v-1.295H284.3v1.295h1.294zm0 15.789v-1.294H284.3v1.294h1.294zm0 15.79v-1.294H284.3v1.294h1.294zm0 15.703v-1.294H284.3v1.294h1.294zm0 15.79v-1.295H284.3v1.295h1.294zm0 15.789v-1.294H284.3v1.294h1.294zm0 15.79v-1.294H284.3v1.294h1.294zm0 15.79v-1.295H284.3v1.295h1.294zm0 15.703v-1.294H284.3v1.294h1.294zm0 15.789v-1.294H284.3v1.294h1.294zm0 15.79v-1.294H284.3v1.294h1.294zm0 15.79v-1.294H284.3v1.294h1.294zm0 15.789v-1.294H284.3v1.294h1.294zm0 15.704v-1.294H284.3v1.294h1.294zm0 15.79v-1.295H284.3v1.295h1.294zm0 15.789v-1.294H284.3v1.294h1.294zm0 15.79v-1.295H284.3v1.295h1.294zm0 15.789v-1.294H284.3v1.294h1.294zm0 15.79v-1.294H284.3v1.294h1.294zM269.804 1.294V0h-1.294v1.294h1.294zm0 15.79V15.79h-1.294v1.294h1.294zm0 15.789V31.58h-1.294v1.294h1.294zm0 15.79V47.37h-1.294v1.294h1.294zm0 15.703v-1.294h-1.294v1.294h1.294zm0 15.79v-1.294h-1.294v1.294h1.294zm0 15.79v-1.294h-1.294v1.294h1.294zm0 15.789v-1.294h-1.294v1.294h1.294zm0 15.79v-1.294h-1.294v1.294h1.294zm0 15.703v-1.294h-1.294v1.294h1.294zm0 15.79v-1.294h-1.294v1.294h1.294zm0 15.79v-1.295h-1.294v1.295h1.294zm0 15.789v-1.294h-1.294v1.294h1.294zm0 15.79v-1.294h-1.294v1.294h1.294zm0 15.703v-1.294h-1.294v1.294h1.294zm0 15.79v-1.295h-1.294v1.295h1.294zm0 15.789v-1.294h-1.294v1.294h1.294zm0 15.79v-1.294h-1.294v1.294h1.294zm0 15.79v-1.295h-1.294v1.295h1.294zm0 15.703v-1.294h-1.294v1.294h1.294zm0 15.789v-1.294h-1.294v1.294h1.294zm0 15.79v-1.294h-1.294v1.294h1.294zm0 15.79v-1.294h-1.294v1.294h1.294zm0 15.789v-1.294h-1.294v1.294h1.294zm0 15.704v-1.294h-1.294v1.294h1.294zm0 15.79v-1.295h-1.294v1.295h1.294zm0 15.789v-1.294h-1.294v1.294h1.294zm0 15.79v-1.295h-1.294v1.295h1.294zm0 15.789v-1.294h-1.294v1.294h1.294zm0 15.79v-1.294h-1.294v1.294h1.294zM254.015 1.294V0h-1.295v1.294h1.295zm0 15.79V15.79h-1.295v1.294h1.295zm0 15.789V31.58h-1.295v1.294h1.295zm0 15.79V47.37h-1.295v1.294h1.295zm0 15.703v-1.294h-1.295v1.294h1.295zm0 15.79v-1.294h-1.295v1.294h1.295zm0 15.79v-1.294h-1.295v1.294h1.295zm0 15.789v-1.294h-1.295v1.294h1.295zm0 15.79v-1.294h-1.295v1.294h1.295zm0 15.703v-1.294h-1.295v1.294h1.295zm0 15.79v-1.294h-1.295v1.294h1.295zm0 15.79v-1.295h-1.295v1.295h1.295zm0 15.789v-1.294h-1.295v1.294h1.295zm0 15.79v-1.294h-1.295v1.294h1.295zm0 15.703v-1.294h-1.295v1.294h1.295zm0 15.79v-1.295h-1.295v1.295h1.295zm0 15.789v-1.294h-1.295v1.294h1.295zm0 15.79v-1.294h-1.295v1.294h1.295zm0 15.79v-1.295h-1.295v1.295h1.295zm0 15.703v-1.294h-1.295v1.294h1.295zm0 15.789v-1.294h-1.295v1.294h1.295zm0 15.79v-1.294h-1.295v1.294h1.295zm0 15.79v-1.294h-1.295v1.294h1.295zm0 15.789v-1.294h-1.295v1.294h1.295zm0 15.704v-1.294h-1.295v1.294h1.295zm0 15.79v-1.295h-1.295v1.295h1.295zm0 15.789v-1.294h-1.295v1.294h1.295zm0 15.79v-1.295h-1.295v1.295h1.295zm0 15.789v-1.294h-1.295v1.294h1.295zm0 15.79v-1.294h-1.295v1.294h1.295zM238.225 1.294V0h-1.294v1.294h1.294zm0 15.79V15.79h-1.294v1.294h1.294zm0 15.789V31.58h-1.294v1.294h1.294zm0 15.79V47.37h-1.294v1.294h1.294zm0 15.703v-1.294h-1.294v1.294h1.294zm0 15.79v-1.294h-1.294v1.294h1.294zm0 15.79v-1.294h-1.294v1.294h1.294zm0 15.789v-1.294h-1.294v1.294h1.294zm0 15.79v-1.294h-1.294v1.294h1.294zm0 15.703v-1.294h-1.294v1.294h1.294zm0 15.79v-1.294h-1.294v1.294h1.294zm0 15.79v-1.295h-1.294v1.295h1.294zm0 15.789v-1.294h-1.294v1.294h1.294zm0 15.79v-1.294h-1.294v1.294h1.294zm0 15.703v-1.294h-1.294v1.294h1.294zm0 15.79v-1.295h-1.294v1.295h1.294zm0 15.789v-1.294h-1.294v1.294h1.294zm0 15.79v-1.294h-1.294v1.294h1.294zm0 15.79v-1.295h-1.294v1.295h1.294zm0 15.703v-1.294h-1.294v1.294h1.294zm0 15.789v-1.294h-1.294v1.294h1.294zm0 15.79v-1.294h-1.294v1.294h1.294zm0 15.79v-1.294h-1.294v1.294h1.294zm0 15.789v-1.294h-1.294v1.294h1.294zm0 15.704v-1.294h-1.294v1.294h1.294zm0 15.79v-1.295h-1.294v1.295h1.294zm0 15.789v-1.294h-1.294v1.294h1.294zm0 15.79v-1.295h-1.294v1.295h1.294zm0 15.789v-1.294h-1.294v1.294h1.294zm0 15.79v-1.294h-1.294v1.294h1.294zM222.435 1.294V0h-1.294v1.294h1.294zm0 15.79V15.79h-1.294v1.294h1.294zm0 15.789V31.58h-1.294v1.294h1.294zm0 15.79V47.37h-1.294v1.294h1.294zm0 15.704v-1.295h-1.294v1.294h1.294zm0 15.789v-1.294h-1.294v1.294h1.294zm0 15.79v-1.294h-1.294v1.294h1.294zm0 15.789v-1.294h-1.294v1.294h1.294zm0 15.79v-1.294h-1.294v1.294h1.294zm0 15.703v-1.294h-1.294v1.294h1.294zm0 15.79v-1.294h-1.294v1.294h1.294zm0 15.79v-1.295h-1.294v1.295h1.294zm0 15.789v-1.294h-1.294v1.294h1.294zm0 15.79v-1.294h-1.294v1.294h1.294zm0 15.703v-1.294h-1.294v1.294h1.294zm0 15.79v-1.295h-1.294v1.295h1.294zm0 15.789v-1.294h-1.294v1.294h1.294zm0 15.79v-1.294h-1.294v1.294h1.294zm0 15.79v-1.295h-1.294v1.295h1.294zm0 15.703v-1.294h-1.294v1.294h1.294zm0 15.789v-1.294h-1.294v1.294h1.294zm0 15.79v-1.294h-1.294v1.294h1.294zm0 15.79v-1.294h-1.294v1.294h1.294zm0 15.789v-1.294h-1.294v1.294h1.294zm0 15.704v-1.294h-1.294v1.294h1.294zm0 15.79v-1.295h-1.294v1.295h1.294zm0 15.789v-1.294h-1.294v1.294h1.294zm0 15.79v-1.295h-1.294v1.295h1.294zm0 15.789v-1.294h-1.294v1.294h1.294zm0 15.79v-1.294h-1.294v1.294h1.294zM206.646 1.294V0h-1.295v1.294h1.295zm0 15.79V15.79h-1.295v1.294h1.295zm0 15.789V31.58h-1.295v1.294h1.295zm0 15.79V47.37h-1.295v1.294h1.295zm0 15.704v-1.295h-1.295v1.294h1.295zm0 15.789v-1.294h-1.295v1.294h1.295zm0 15.79v-1.294h-1.295v1.294h1.295zm0 15.789v-1.294h-1.295v1.294h1.295zm0 15.79v-1.294h-1.295v1.294h1.295zm0 15.703v-1.294h-1.295v1.294h1.295zm0 15.79v-1.294h-1.295v1.294h1.295zm0 15.79v-1.295h-1.295v1.295h1.295zm0 15.789v-1.294h-1.295v1.294h1.295zm0 15.79v-1.294h-1.295v1.294h1.295zm0 15.703v-1.294h-1.295v1.294h1.295zm0 15.79v-1.295h-1.295v1.295h1.295zm0 15.789v-1.294h-1.295v1.294h1.295zm0 15.79v-1.294h-1.295v1.294h1.295zm0 15.79v-1.295h-1.295v1.295h1.295zm0 15.703v-1.294h-1.295v1.294h1.295zm0 15.789v-1.294h-1.295v1.294h1.295zm0 15.79v-1.294h-1.295v1.294h1.295zm0 15.79v-1.294h-1.295v1.294h1.295zm0 15.789v-1.294h-1.295v1.294h1.295zm0 15.704v-1.294h-1.295v1.294h1.295zm0 15.79v-1.295h-1.295v1.295h1.295zm0 15.789v-1.294h-1.295v1.294h1.295zm0 15.79v-1.295h-1.295v1.295h1.295zm0 15.789v-1.294h-1.295v1.294h1.295zm0 15.79v-1.294h-1.295v1.294h1.295zM190.856 1.294V0h-1.294v1.294h1.294zm0 15.79V15.79h-1.294v1.294h1.294zm0 15.789V31.58h-1.294v1.294h1.294zm0 15.79V47.37h-1.294v1.294h1.294zm0 15.704v-1.295h-1.294v1.294h1.294zm0 15.789v-1.294h-1.294v1.294h1.294zm0 15.79v-1.294h-1.294v1.294h1.294zm0 15.789v-1.294h-1.294v1.294h1.294zm0 15.79v-1.294h-1.294v1.294h1.294zm0 15.703v-1.294h-1.294v1.294h1.294zm0 15.79v-1.294h-1.294v1.294h1.294zm0 15.79v-1.295h-1.294v1.295h1.294zm0 15.789v-1.294h-1.294v1.294h1.294zm0 15.79v-1.294h-1.294v1.294h1.294zm0 15.703v-1.294h-1.294v1.294h1.294zm0 15.79v-1.295h-1.294v1.295h1.294zm0 15.789v-1.294h-1.294v1.294h1.294zm0 15.79v-1.294h-1.294v1.294h1.294zm0 15.79v-1.295h-1.294v1.295h1.294zm0 15.703v-1.294h-1.294v1.294h1.294zm0 15.789v-1.294h-1.294v1.294h1.294zm0 15.79v-1.294h-1.294v1.294h1.294zm0 15.79v-1.294h-1.294v1.294h1.294zm0 15.789v-1.294h-1.294v1.294h1.294zm0 15.704v-1.294h-1.294v1.294h1.294zm0 15.79v-1.295h-1.294v1.295h1.294zm0 15.789v-1.294h-1.294v1.294h1.294zm0 15.79v-1.295h-1.294v1.295h1.294zm0 15.789v-1.294h-1.294v1.294h1.294zm0 15.79v-1.294h-1.294v1.294h1.294zM175.066 1.294V0h-1.294v1.294h1.294zm0 15.79V15.79h-1.294v1.294h1.294zm0 15.789V31.58h-1.294v1.294h1.294zm0 15.79V47.37h-1.294v1.294h1.294zm0 15.703v-1.294h-1.294v1.294h1.294zm0 15.79v-1.294h-1.294v1.294h1.294zm0 15.79V94.65h-1.294v1.295h1.294zm0 15.789v-1.294h-1.294v1.294h1.294zm0 15.79v-1.294h-1.294v1.294h1.294zm0 15.703v-1.294h-1.294v1.294h1.294zm0 15.79v-1.294h-1.294v1.294h1.294zm0 15.79v-1.295h-1.294v1.295h1.294zm0 15.789v-1.294h-1.294v1.294h1.294zm0 15.79v-1.294h-1.294v1.294h1.294zm0 15.703v-1.294h-1.294v1.294h1.294zm0 15.79v-1.295h-1.294v1.295h1.294zm0 15.789v-1.294h-1.294v1.294h1.294zm0 15.79v-1.294h-1.294v1.294h1.294zm0 15.79v-1.295h-1.294v1.295h1.294zm0 15.703v-1.294h-1.294v1.294h1.294zm0 15.789v-1.294h-1.294v1.294h1.294zm0 15.79v-1.294h-1.294v1.294h1.294zm0 15.79v-1.294h-1.294v1.294h1.294zm0 15.789v-1.294h-1.294v1.294h1.294zm0 15.704v-1.294h-1.294v1.294h1.294zm0 15.79v-1.295h-1.294v1.295h1.294zm0 15.789v-1.294h-1.294v1.294h1.294zm0 15.79v-1.295h-1.294v1.295h1.294zm0 15.789v-1.294h-1.294v1.294h1.294zm0 15.79v-1.294h-1.294v1.294h1.294zM159.277 1.294V0h-1.294v1.294h1.294zm0 15.79V15.79h-1.294v1.294h1.294zm0 15.789V31.58h-1.294v1.294h1.294zm0 15.79V47.37h-1.294v1.294h1.294zm0 15.703v-1.294h-1.294v1.294h1.294zm0 15.79v-1.294h-1.294v1.294h1.294zm0 15.79V94.65h-1.294v1.295h1.294zm0 15.789v-1.294h-1.294v1.294h1.294zm0 15.79v-1.294h-1.294v1.294h1.294zm0 15.703v-1.294h-1.294v1.294h1.294zm0 15.79v-1.294h-1.294v1.294h1.294zm0 15.79v-1.295h-1.294v1.295h1.294zm0 15.789v-1.294h-1.294v1.294h1.294zm0 15.79v-1.294h-1.294v1.294h1.294zm0 15.703v-1.294h-1.294v1.294h1.294zm0 15.79v-1.295h-1.294v1.295h1.294zm0 15.789v-1.294h-1.294v1.294h1.294zm0 15.79v-1.294h-1.294v1.294h1.294zm0 15.79v-1.295h-1.294v1.295h1.294zm0 15.703v-1.294h-1.294v1.294h1.294zm0 15.789v-1.294h-1.294v1.294h1.294zm0 15.79v-1.294h-1.294v1.294h1.294zm0 15.79v-1.294h-1.294v1.294h1.294zm0 15.789v-1.294h-1.294v1.294h1.294zm0 15.704v-1.294h-1.294v1.294h1.294zm0 15.79v-1.295h-1.294v1.295h1.294zm0 15.789v-1.294h-1.294v1.294h1.294zm0 15.79v-1.295h-1.294v1.295h1.294zm0 15.789v-1.294h-1.294v1.294h1.294zm0 15.79v-1.294h-1.294v1.294h1.294zM143.487 1.294V0h-1.294v1.294h1.294zm0 15.79V15.79h-1.294v1.294h1.294zm0 15.789V31.58h-1.294v1.294h1.294zm0 15.79V47.37h-1.294v1.294h1.294zm0 15.703v-1.294h-1.294v1.294h1.294zm0 15.79v-1.294h-1.294v1.294h1.294zm0 15.79V94.65h-1.294v1.295h1.294zm0 15.789v-1.294h-1.294v1.294h1.294zm0 15.79v-1.294h-1.294v1.294h1.294zm0 15.703v-1.294h-1.294v1.294h1.294zm0 15.79v-1.294h-1.294v1.294h1.294zm0 15.79v-1.295h-1.294v1.295h1.294zm0 15.789v-1.294h-1.294v1.294h1.294zm0 15.79v-1.294h-1.294v1.294h1.294zm0 15.703v-1.294h-1.294v1.294h1.294zm0 15.79v-1.295h-1.294v1.295h1.294zm0 15.789v-1.294h-1.294v1.294h1.294zm0 15.79v-1.294h-1.294v1.294h1.294zm0 15.79v-1.295h-1.294v1.295h1.294zm0 15.703v-1.294h-1.294v1.294h1.294zm0 15.789v-1.294h-1.294v1.294h1.294zm0 15.79v-1.294h-1.294v1.294h1.294zm0 15.79v-1.294h-1.294v1.294h1.294zm0 15.789v-1.294h-1.294v1.294h1.294zm0 15.704v-1.294h-1.294v1.294h1.294zm0 15.79v-1.295h-1.294v1.295h1.294zm0 15.789v-1.294h-1.294v1.294h1.294zm0 15.79v-1.295h-1.294v1.295h1.294zm0 15.789v-1.294h-1.294v1.294h1.294zm0 15.79v-1.294h-1.294v1.294h1.294zM127.698 1.294V0h-1.295v1.294h1.295zm0 15.79V15.79h-1.295v1.294h1.295zm0 15.789V31.58h-1.295v1.294h1.295zm0 15.79V47.37h-1.295v1.294h1.295zm0 15.703v-1.294h-1.295v1.294h1.295zm0 15.79v-1.294h-1.295v1.294h1.295zm0 15.79V94.65h-1.295v1.295h1.295zm0 15.789v-1.294h-1.295v1.294h1.295zm0 15.79v-1.294h-1.295v1.294h1.295zm0 15.703v-1.294h-1.295v1.294h1.295zm0 15.79v-1.294h-1.295v1.294h1.295zm0 15.79v-1.295h-1.295v1.295h1.295zm0 15.789v-1.294h-1.295v1.294h1.295zm0 15.79v-1.294h-1.295v1.294h1.295zm0 15.703v-1.294h-1.295v1.294h1.295zm0 15.79v-1.295h-1.295v1.295h1.295zm0 15.789v-1.294h-1.295v1.294h1.295zm0 15.79v-1.294h-1.295v1.294h1.295zm0 15.79v-1.295h-1.295v1.295h1.295zm0 15.703v-1.294h-1.295v1.294h1.295zm0 15.789v-1.294h-1.295v1.294h1.295zm0 15.79v-1.294h-1.295v1.294h1.295zm0 15.79v-1.294h-1.295v1.294h1.295zm0 15.789v-1.294h-1.295v1.294h1.295zm0 15.704v-1.294h-1.295v1.294h1.295zm0 15.79v-1.295h-1.295v1.295h1.295zm0 15.789v-1.294h-1.295v1.294h1.295zm0 15.79v-1.295h-1.295v1.295h1.295zm0 15.789v-1.294h-1.295v1.294h1.295zm0 15.79v-1.294h-1.295v1.294h1.295zM111.908 1.294V0h-1.294v1.294h1.294zm0 15.79V15.79h-1.294v1.294h1.294zm0 15.789V31.58h-1.294v1.294h1.294zm0 15.79V47.37h-1.294v1.294h1.294zm0 15.703v-1.294h-1.294v1.294h1.294zm0 15.79v-1.294h-1.294v1.294h1.294zm0 15.79V94.65h-1.294v1.295h1.294zm0 15.789v-1.294h-1.294v1.294h1.294zm0 15.79v-1.294h-1.294v1.294h1.294zm0 15.703v-1.294h-1.294v1.294h1.294zm0 15.79v-1.294h-1.294v1.294h1.294zm0 15.79v-1.295h-1.294v1.295h1.294zm0 15.789v-1.294h-1.294v1.294h1.294zm0 15.79v-1.294h-1.294v1.294h1.294zm0 15.703v-1.294h-1.294v1.294h1.294zm0 15.79v-1.295h-1.294v1.295h1.294zm0 15.789v-1.294h-1.294v1.294h1.294zm0 15.79v-1.294h-1.294v1.294h1.294zm0 15.79v-1.295h-1.294v1.295h1.294zm0 15.703v-1.294h-1.294v1.294h1.294zm0 15.789v-1.294h-1.294v1.294h1.294zm0 15.79v-1.294h-1.294v1.294h1.294zm0 15.79v-1.294h-1.294v1.294h1.294zm0 15.789v-1.294h-1.294v1.294h1.294zm0 15.704v-1.294h-1.294v1.294h1.294zm0 15.79v-1.295h-1.294v1.295h1.294zm0 15.789v-1.294h-1.294v1.294h1.294zm0 15.79v-1.295h-1.294v1.295h1.294zm0 15.789v-1.294h-1.294v1.294h1.294zm0 15.79v-1.294h-1.294v1.294h1.294zM96.118 1.294V0h-1.294v1.294h1.294zm0 15.79V15.79h-1.294v1.294h1.294zm0 15.789V31.58h-1.294v1.294h1.294zm0 15.79V47.37h-1.294v1.294h1.294zm0 15.703v-1.294h-1.294v1.294h1.294zm0 15.79v-1.294h-1.294v1.294h1.294zm0 15.79V94.65h-1.294v1.295h1.294zm0 15.789v-1.294h-1.294v1.294h1.294zm0 15.79v-1.294h-1.294v1.294h1.294zm0 15.703v-1.294h-1.294v1.294h1.294zm0 15.79v-1.294h-1.294v1.294h1.294zm0 15.79v-1.295h-1.294v1.295h1.294zm0 15.789v-1.294h-1.294v1.294h1.294zm0 15.79v-1.294h-1.294v1.294h1.294zm0 15.703v-1.294h-1.294v1.294h1.294zm0 15.79v-1.295h-1.294v1.295h1.294zm0 15.789v-1.294h-1.294v1.294h1.294zm0 15.79v-1.294h-1.294v1.294h1.294zm0 15.79v-1.295h-1.294v1.295h1.294zm0 15.703v-1.294h-1.294v1.294h1.294zm0 15.789v-1.294h-1.294v1.294h1.294zm0 15.79v-1.294h-1.294v1.294h1.294zm0 15.79v-1.294h-1.294v1.294h1.294zm0 15.789v-1.294h-1.294v1.294h1.294zm0 15.704v-1.294h-1.294v1.294h1.294zm0 15.79v-1.295h-1.294v1.295h1.294zm0 15.789v-1.294h-1.294v1.294h1.294zm0 15.79v-1.295h-1.294v1.295h1.294zm0 15.789v-1.294h-1.294v1.294h1.294zm0 15.79v-1.294h-1.294v1.294h1.294zM80.329 1.294V0h-1.295v1.294h1.295zm0 15.79V15.79h-1.295v1.294h1.295zm0 15.789V31.58h-1.295v1.294h1.295zm0 15.79V47.37h-1.295v1.294h1.295zm0 15.703v-1.294h-1.295v1.294h1.295zm0 15.79v-1.294h-1.295v1.294h1.295zm0 15.79V94.65h-1.295v1.295h1.295zm0 15.789v-1.294h-1.295v1.294h1.295zm0 15.79v-1.294h-1.295v1.294h1.295zm0 15.703v-1.294h-1.295v1.294h1.295zm0 15.79v-1.294h-1.295v1.294h1.295zm0 15.79v-1.295h-1.295v1.295h1.295zm0 15.789v-1.294h-1.295v1.294h1.295zm0 15.79v-1.294h-1.295v1.294h1.295zm0 15.703v-1.294h-1.295v1.294h1.295zm0 15.79v-1.295h-1.295v1.295h1.295zm0 15.789v-1.294h-1.295v1.294h1.295zm0 15.79v-1.294h-1.295v1.294h1.295zm0 15.79v-1.295h-1.295v1.295h1.295zm0 15.703v-1.294h-1.295v1.294h1.295zm0 15.789v-1.294h-1.295v1.294h1.295zm0 15.79v-1.294h-1.295v1.294h1.295zm0 15.79v-1.294h-1.295v1.294h1.295zm0 15.789v-1.294h-1.295v1.294h1.295zm0 15.704v-1.294h-1.295v1.294h1.295zm0 15.79v-1.295h-1.295v1.295h1.295zm0 15.789v-1.294h-1.295v1.294h1.295zm0 15.79v-1.295h-1.295v1.295h1.295zm0 15.789v-1.294h-1.295v1.294h1.295zm0 15.79v-1.294h-1.295v1.294h1.295zM64.54 1.294V0h-1.295v1.294h1.294zm0 15.79V15.79h-1.295v1.294h1.294zm0 15.789V31.58h-1.295v1.294h1.294zm0 15.79V47.37h-1.295v1.294h1.294zm0 15.703v-1.294h-1.295v1.294h1.294zm0 15.79v-1.294h-1.295v1.294h1.294zm0 15.79V94.65h-1.295v1.295h1.294zm0 15.789v-1.294h-1.295v1.294h1.294zm0 15.79v-1.294h-1.295v1.294h1.294zm0 15.703v-1.294h-1.295v1.294h1.294zm0 15.79v-1.294h-1.295v1.294h1.294zm0 15.79v-1.295h-1.295v1.295h1.294zm0 15.789v-1.294h-1.295v1.294h1.294zm0 15.79v-1.294h-1.295v1.294h1.294zm0 15.703v-1.294h-1.295v1.294h1.294zm0 15.79v-1.295h-1.295v1.295h1.294zm0 15.789v-1.294h-1.295v1.294h1.294zm0 15.79v-1.294h-1.295v1.294h1.294zm0 15.79v-1.295h-1.295v1.295h1.294zm0 15.703v-1.294h-1.295v1.294h1.294zm0 15.789v-1.294h-1.295v1.294h1.294zm0 15.79v-1.294h-1.295v1.294h1.294zm0 15.79v-1.294h-1.295v1.294h1.294zm0 15.789v-1.294h-1.295v1.294h1.294zm0 15.704v-1.294h-1.295v1.294h1.294zm0 15.79v-1.295h-1.295v1.295h1.294zm0 15.789v-1.294h-1.295v1.294h1.294zm0 15.79v-1.295h-1.295v1.295h1.294zm0 15.789v-1.294h-1.295v1.294h1.294zm0 15.79v-1.294h-1.295v1.294h1.294zM48.75 1.294V0h-1.295v1.294h1.294zm0 15.79V15.79h-1.295v1.294h1.294zm0 15.789V31.58h-1.295v1.294h1.294zm0 15.79V47.37h-1.295v1.294h1.294zm0 15.703v-1.294h-1.295v1.294h1.294zm0 15.79v-1.294h-1.295v1.294h1.294zm0 15.79V94.65h-1.295v1.295h1.294zm0 15.789v-1.294h-1.295v1.294h1.294zm0 15.79v-1.294h-1.295v1.294h1.294zm0 15.703v-1.294h-1.295v1.294h1.294zm0 15.79v-1.294h-1.295v1.294h1.294zm0 15.79v-1.295h-1.295v1.295h1.294zm0 15.789v-1.294h-1.295v1.294h1.294zm0 15.79v-1.294h-1.295v1.294h1.294zm0 15.703v-1.294h-1.295v1.294h1.294zm0 15.79v-1.295h-1.295v1.295h1.294zm0 15.789v-1.294h-1.295v1.294h1.294zm0 15.79v-1.294h-1.295v1.294h1.294zm0 15.79v-1.295h-1.295v1.295h1.294zm0 15.703v-1.294h-1.295v1.294h1.294zm0 15.789v-1.294h-1.295v1.294h1.294zm0 15.79v-1.294h-1.295v1.294h1.294zm0 15.79v-1.294h-1.295v1.294h1.294zm0 15.789v-1.294h-1.295v1.294h1.294zm0 15.704v-1.294h-1.295v1.294h1.294zm0 15.79v-1.295h-1.295v1.295h1.294zm0 15.789v-1.294h-1.295v1.294h1.294zm0 15.79v-1.295h-1.295v1.295h1.294zm0 15.789v-1.294h-1.295v1.294h1.294zm0 15.79v-1.294h-1.295v1.294h1.294zM32.96 1.294V0h-1.294v1.294h1.294zm0 15.79V15.79h-1.294v1.294h1.294zm0 15.789V31.58h-1.294v1.294h1.294zm0 15.79V47.37h-1.294v1.294h1.294zm0 15.703v-1.294h-1.294v1.294h1.294zm0 15.79v-1.294h-1.294v1.294h1.294zm0 15.79V94.65h-1.294v1.295h1.294zm0 15.789v-1.294h-1.294v1.294h1.294zm0 15.79v-1.294h-1.294v1.294h1.294zm0 15.703v-1.294h-1.294v1.294h1.294zm0 15.79v-1.294h-1.294v1.294h1.294zm0 15.79v-1.295h-1.294v1.295h1.294zm0 15.789v-1.294h-1.294v1.294h1.294zm0 15.79v-1.294h-1.294v1.294h1.294zm0 15.703v-1.294h-1.294v1.294h1.294zm0 15.79v-1.295h-1.294v1.295h1.294zm0 15.789v-1.294h-1.294v1.294h1.294zm0 15.79v-1.294h-1.294v1.294h1.294zm0 15.79v-1.295h-1.294v1.295h1.294zm0 15.703v-1.294h-1.294v1.294h1.294zm0 15.789v-1.294h-1.294v1.294h1.294zm0 15.79v-1.294h-1.294v1.294h1.294zm0 15.79v-1.294h-1.294v1.294h1.294zm0 15.789v-1.294h-1.294v1.294h1.294zm0 15.704v-1.294h-1.294v1.294h1.294zm0 15.79v-1.295h-1.294v1.295h1.294zm0 15.789v-1.294h-1.294v1.294h1.294zm0 15.79v-1.295h-1.294v1.295h1.294zm0 15.789v-1.294h-1.294v1.294h1.294zm0 15.79v-1.294h-1.294v1.294h1.294zM17.084 1.294V0H15.79v1.294h1.294zm0 15.79V15.79H15.79v1.294h1.294zm0 15.789V31.58H15.79v1.294h1.294zm0 15.79V47.37H15.79v1.294h1.294zm0 15.703v-1.294H15.79v1.294h1.294zm0 15.79v-1.294H15.79v1.294h1.294zm0 15.79V94.65H15.79v1.295h1.294zm0 15.789v-1.294H15.79v1.294h1.294zm0 15.79v-1.294H15.79v1.294h1.294zm0 15.703v-1.294H15.79v1.294h1.294zm0 15.79v-1.294H15.79v1.294h1.294zm0 15.79v-1.295H15.79v1.295h1.294zm0 15.789v-1.294H15.79v1.294h1.294zm0 15.79v-1.294H15.79v1.294h1.294zm0 15.703v-1.294H15.79v1.294h1.294zm0 15.79v-1.295H15.79v1.295h1.294zm0 15.789v-1.294H15.79v1.294h1.294zm0 15.79v-1.294H15.79v1.294h1.294zm0 15.79v-1.295H15.79v1.295h1.294zm0 15.703v-1.294H15.79v1.294h1.294zm0 15.789v-1.294H15.79v1.294h1.294zm0 15.79v-1.294H15.79v1.294h1.294zm0 15.79v-1.294H15.79v1.294h1.294zm0 15.789v-1.294H15.79v1.294h1.294zm0 15.704v-1.294H15.79v1.294h1.294zm0 15.79v-1.295H15.79v1.295h1.294zm0 15.789v-1.294H15.79v1.294h1.294zm0 15.79v-1.295H15.79v1.295h1.294zm0 15.789v-1.294H15.79v1.294h1.294zm0 15.79v-1.294H15.79v1.294h1.294zM1.294 1.294V0H0v1.294h1.294zm0 15.79V15.79H0v1.294h1.294zm0 15.789V31.58H0v1.294h1.294zm0 15.79V47.37H0v1.294h1.294zm0 15.703v-1.294H0v1.294h1.294zm0 15.79v-1.294H0v1.294h1.294zm0 15.79V94.65H0v1.295h1.294zm0 15.789v-1.294H0v1.294h1.294zm0 15.79v-1.294H0v1.294h1.294zm0 15.703v-1.294H0v1.294h1.294zm0 15.79v-1.294H0v1.294h1.294zm0 15.79v-1.295H0v1.295h1.294zm0 15.789v-1.294H0v1.294h1.294zm0 15.79v-1.294H0v1.294h1.294zm0 15.703v-1.294H0v1.294h1.294zm0 15.79v-1.295H0v1.295h1.294zm0 15.789v-1.294H0v1.294h1.294zm0 15.79v-1.294H0v1.294h1.294zm0 15.79v-1.295H0v1.295h1.294zm0 15.703v-1.294H0v1.294h1.294zm0 15.789v-1.294H0v1.294h1.294zm0 15.79v-1.294H0v1.294h1.294zm0 15.79v-1.294H0v1.294h1.294zm0 15.789v-1.294H0v1.294h1.294zm0 15.704v-1.294H0v1.294h1.294zm0 15.79v-1.295H0v1.295h1.294zm0 15.789v-1.294H0v1.294h1.294zm0 15.79v-1.295H0v1.295h1.294zm0 15.789v-1.294H0v1.294h1.294zm0 15.79v-1.294H0v1.294h1.294z" fill="#E8494B"/></svg>