<svg width="60" height="93" viewBox="0 0 60 93" fill="none" xmlns="http://www.w3.org/2000/svg"><path d="M7.367 0v22.767l-3.223.018V0h3.223z" fill="#E8494B"/><path d="M50.385 31.543h-3.402l8.388 22.685h3.671l-8.657-22.685zM47.361 42.45h-5.022l-4.5 11.779h3.654l3.204-8.835h3.816L47.36 42.45z" fill="#fff"/><path d="M17.497 70.215v22.767L14.274 93V70.215h3.223z" fill="#E8494B"/><path d="M27.626 66.03v26.952L23.943 93V66.03h3.683z" fill="#fff"/><path d="M58.937 63.24H14.274v3.72h44.663v-3.72zM7.367 83.235H0v-3.72h7.367v3.72zM33.74 0l-7.734 18.171L18.274 0h-4v34.598h9.297c1.493 0 2.613.255 3.289.8.675.508 1.03 1.326 1.03 2.471 0 1.2-.337 2.09-1.03 2.671-.676.545-1.796.818-3.36.818h-9.226v13.047h10.133c2.364 0 4.195-.436 5.492-1.327 1.53-1.072 2.294-2.725 2.294-5.015 0-1.526-.374-2.762-1.12-3.689-.747-.926-1.867-1.526-3.325-1.817 1.12-.418 1.956-1.054 2.578-1.871.622-.89.924-1.963.924-3.235 0-1.744-.586-3.107-1.777-4.125-1.244-1.072-2.915-1.58-5.102-1.58h-6.737V6.486l6.933 16.19h2.861l6.933-16.19v16.19h3.396V0h-4.018zm-4.943 47.99c0 1.309-.533 2.254-1.529 2.853-.8.436-1.92.69-3.36.69h-6.274v-7.358h6.364c1.617 0 2.826.29 3.608.89.8.618 1.191 1.599 1.191 2.925z" fill="#fff"/></svg>