<svg width="1209" height="2036" viewBox="0 0 1209 2036" fill="none" xmlns="http://www.w3.org/2000/svg"><path d="M74.689 3.576V499H0V3.576h74.689z" fill="#E8494B"/><path d="M1018.38 694.037h-74.691l184.151 496.083h80.62l-190.08-496.083zm-66.392 238.497H841.733l-98.794 257.576h80.221l70.342-193.181h83.778l-25.292-64.395zM295.592 1539.92v495.68l-74.689.4v-496.08h74.689z" fill="#fff"/><path d="M1204.5 1390.46H220.903v74.33h220.905V2036h74.689v-571.21H1204.5v-74.33zM654.019 0L482.116 397.501 310.214 0h-89.311v756.842h206.679c33.195 0 58.091 5.565 73.108 17.49 15.017 11.13 22.92 29.017 22.92 54.06 0 26.235-7.508 45.712-22.92 58.432-15.017 11.926-39.913 17.888-74.689 17.888H220.903v285.408h225.252c52.559 0 93.262-9.54 122.11-29.02 33.986-23.45 50.978-59.63 50.978-109.71 0-33.39-8.298-60.42-24.896-80.693-16.597-20.272-41.494-33.39-73.898-39.75 24.896-9.142 43.469-23.055 57.301-40.943 13.831-19.477 20.549-42.93 20.549-70.755 0-38.16-13.041-67.972-39.518-90.232-27.662-23.453-64.809-34.583-113.416-34.583H296.382V141.908l154.12 354.173h63.624l154.12-354.173v354.173h75.479V0h-89.706zm-109.86 1049.8c0 28.62-11.855 49.29-33.985 62.41-17.783 9.54-42.679 15.1-74.689 15.1H296.382V966.325h141.474c35.962 0 62.834 6.36 80.222 19.477 16.992 13.515 26.081 34.978 26.081 63.998z" fill="#fff"/></svg>