<svg width="17" height="36" viewBox="0 0 17 36" fill="none" xmlns="http://www.w3.org/2000/svg"><path opacity=".1" d="M5.2 22.85v4.5c0 1.267.25 2.15.75 2.65.533.5 1.233.75 2.1.75S9.6 30.5 10.1 30c.533-.5.8-1.383.8-2.65V19.8H5.85v-5h5.05V8.45c0-1.267-.267-2.15-.8-2.65-.5-.533-1.183-.8-2.05-.8-.867 0-1.567.267-2.1.8-.5.5-.75 1.383-.75 2.65v3.3H.1V8.8c0-2.833.667-5 2-6.5C3.467.767 5.5 0 8.2 0c2.7 0 4.733.767 6.1 2.3 1.4 1.5 2.1 3.667 2.1 6.5V27c0 2.833-.7 5.017-2.1 6.55-1.367 1.5-3.4 2.25-6.1 2.25-2.7 0-4.75-.75-6.15-2.25C.683 32.017 0 29.833 0 27v-4.15h5.2z" fill="#fff"/></svg>