<svg width="17" height="35" viewBox="0 0 17 35" fill="none" xmlns="http://www.w3.org/2000/svg"><path opacity=".1" d="M8.3 0c2.867 0 4.933.667 6.2 2 1.3 1.333 1.95 3.35 1.95 6.05V9.3c0 1.8-.283 3.283-.85 4.45-.567 1.167-1.467 2.033-2.7 2.6 1.5.567 2.55 1.5 3.15 2.8.633 1.267.95 2.833.95 4.7v2.85c0 2.7-.7 4.767-2.1 6.2-1.4 1.4-3.483 2.1-6.25 2.1H0V0h8.3zM5.5 19.25V30h3.15c.933 0 1.633-.25 2.1-.75.5-.5.75-1.4.75-2.7V23.5c0-1.633-.283-2.75-.85-3.35-.533-.6-1.433-.9-2.7-.9H5.5zM5.5 5v9.25h2.15c1.033 0 1.833-.267 2.4-.8.6-.533.9-1.5.9-2.9V8.6c0-1.267-.233-2.183-.7-2.75C9.817 5.283 9.117 5 8.15 5H5.5z" fill="#fff"/></svg>