<svg width="17" height="36" viewBox="0 0 17 36" fill="none" xmlns="http://www.w3.org/2000/svg"><path opacity=".1" d="M5.5 27.35c0 1.267.25 2.167.75 2.7.533.5 1.233.75 2.1.75s1.55-.25 2.05-.75c.533-.533.8-1.433.8-2.7V8.45c0-1.267-.267-2.15-.8-2.65-.5-.533-1.183-.8-2.05-.8-.867 0-1.567.267-2.1.8-.5.5-.75 1.383-.75 2.65v18.9zM0 8.8c0-2.833.717-5 2.15-6.5C3.583.767 5.65 0 8.35 0s4.767.767 6.2 2.3c1.433 1.5 2.15 3.667 2.15 6.5V27c0 2.833-.717 5.017-2.15 6.55-1.433 1.5-3.5 2.25-6.2 2.25s-4.767-.75-6.2-2.25C.717 32.017 0 29.833 0 27V8.8z" fill="#fff"/></svg>