<svg width="206" height="423" viewBox="0 0 206 423" fill="none" xmlns="http://www.w3.org/2000/svg"><path opacity=".1" d="M100.576 0c34.738 0 59.781 8.057 75.13 24.171 15.753 16.115 23.629 40.488 23.629 73.119v15.107c0 21.754-3.433 39.682-10.3 53.782-6.866 14.1-17.772 24.574-32.717 31.422 18.176 6.849 30.9 18.129 38.17 33.84C202.163 246.75 206 265.684 206 288.244v34.445c0 32.631-8.482 57.608-25.447 74.931-16.965 16.92-42.21 25.38-75.735 25.38H0V0h100.576zM66.647 232.65v129.921h38.171c11.309 0 19.792-3.021 25.447-9.064 6.059-6.043 9.088-16.92 9.088-32.631v-36.862c0-19.74-3.433-33.235-10.3-40.487-6.463-7.251-17.369-10.877-32.718-10.877H66.647zm0-172.221V172.22H92.7c12.522 0 22.216-3.222 29.082-9.668 7.271-6.446 10.906-18.129 10.906-35.049v-23.567c0-15.308-2.827-26.387-8.482-33.236-5.251-6.848-13.733-10.272-25.447-10.272H66.647z" fill="#fff"/></svg>